<?xml version="1.0" standalone="no"?>
<!DOCTYPE svg PUBLIC "-//W3C//DTD SVG 20010904//EN"
 "http://www.w3.org/TR/2001/REC-SVG-20010904/DTD/svg10.dtd">
<svg version="1.0" xmlns="http://www.w3.org/2000/svg"
 width="512.000000pt" height="512.000000pt" viewBox="0 0 512.000000 512.000000"
 preserveAspectRatio="xMidYMid meet">
<metadata>
Created by potrace 1.14, written by Peter Selinger 2001-2017
</metadata>
<g transform="translate(0.000000,512.000000) scale(0.100000,-0.100000)"
fill="#000000" stroke="none">
<path d="M0 2560 l0 -2560 2560 0 2560 0 0 2560 0 2560 -2560 0 -2560 0 0
-2560z m1237 2353 c-3 -10 -5 -2 -5 17 0 19 2 27 5 18 2 -10 2 -26 0 -35z
m569 -1144 c3 -6 1 -16 -5 -22 -9 -9 -14 -8 -21 3 -9 15 -4 30 10 30 5 0 12
-5 16 -11z m1604 -9 c0 -11 -7 -20 -15 -20 -8 0 -15 9 -15 20 0 11 7 20 15 20
8 0 15 -9 15 -20z m-1500 -2 c0 -4 -4 -8 -9 -8 -6 0 -12 4 -15 8 -3 5 1 9 9 9
8 0 15 -4 15 -9z m1340 -3 c0 -8 -4 -15 -10 -15 -5 0 -7 7 -4 15 4 8 8 15 10
15 2 0 4 -7 4 -15z m-1890 -10 c0 -8 -7 -15 -15 -15 -8 0 -15 7 -15 15 0 8 7
15 15 15 8 0 15 -7 15 -15z m140 5 c0 -5 -5 -10 -11 -10 -5 0 -7 5 -4 10 3 6
8 10 11 10 2 0 4 -4 4 -10z m58 -8 c2 -7 -5 -12 -17 -12 -14 0 -19 5 -14 15 6
17 25 15 31 -3z m394 -8 c-3 -17 -8 -22 -15 -15 -11 11 -3 41 11 41 5 0 7 -12
4 -26z m1258 -6 c0 -26 -13 -16 -17 13 -2 12 1 18 7 14 5 -3 10 -16 10 -27z
m410 5 c0 -19 -3 -24 -10 -17 -6 6 -8 18 -4 27 9 24 14 21 14 -10z m220 13 c0
-16 45 -27 58 -14 5 5 9 2 9 -7 0 -14 -9 -16 -56 -11 -31 3 -64 5 -74 5 -10 1
-15 5 -12 11 3 5 19 7 36 3 24 -5 28 -3 23 11 -3 9 -1 16 5 16 6 0 11 -6 11
-14z m-520 -16 c0 -11 -5 -20 -11 -20 -5 0 -7 5 -4 10 3 6 1 10 -4 10 -6 0
-11 5 -11 10 0 6 7 10 15 10 8 0 15 -9 15 -20z m1025 10 c3 -5 1 -10 -4 -10
-6 0 -11 5 -11 10 0 6 2 10 4 10 3 0 8 -4 11 -10z m-3012 -797 c-5 -2 -8 -15
-5 -28 3 -20 10 -25 33 -25 32 0 39 20 14 40 -18 15 -20 34 -2 23 6 -4 22 -6
35 -4 17 2 22 -3 22 -21 0 -33 -43 -49 -142 -51 l-83 -2 -3 37 -3 37 63 3 c60
3 94 -2 71 -9z m162 7 c-3 -5 -13 -10 -21 -10 -12 0 -13 -4 -4 -21 10 -18 9
-20 -7 -17 -10 2 -19 13 -21 25 -3 17 3 22 25 26 15 2 29 5 31 6 2 0 0 -3 -3
-9z m1905 0 c0 -5 -12 -10 -26 -10 -14 0 -23 4 -19 10 3 6 15 10 26 10 10 0
19 -4 19 -10z m-1850 -8 c-8 -4 -15 -13 -15 -21 0 -8 -6 -16 -12 -18 -8 -3
-13 5 -13 21 0 22 4 26 28 25 18 0 22 -3 12 -7z m154 1 c-16 -3 -20 -9 -17
-24 4 -15 0 -19 -18 -20 l-24 -1 25 -8 25 -8 -25 -2 c-65 -4 -252 -2 -257 4
-4 3 32 6 79 6 l85 0 -5 30 -4 30 78 -1 c44 -1 69 -4 58 -6z m1789 -7 c9 -7
17 -21 17 -30 0 -13 10 -16 50 -16 43 0 50 3 50 20 0 14 7 20 23 20 20 -1 21
-2 5 -14 -27 -20 -22 -26 20 -25 20 0 31 3 25 6 -7 2 -13 13 -13 24 0 15 -7
19 -39 19 -34 0 -38 -3 -34 -20 4 -15 0 -20 -16 -20 -16 0 -21 6 -21 25 l0 25
218 0 c125 0 211 -4 203 -9 -8 -5 -9 -11 -3 -15 6 -3 8 -15 5 -26 -5 -18 -16
-19 -187 -22 -223 -4 -308 0 -301 12 4 6 -2 10 -12 10 -28 0 -44 19 -30 36 15
17 18 17 40 0z m-2118 -16 c3 -5 -1 -10 -9 -10 -9 0 -16 5 -16 10 0 6 4 10 9
10 6 0 13 -4 16 -10z m2007 -2 c-9 -9 -15 -9 -24 0 -9 9 -7 12 12 12 19 0 21
-3 12 -12z m23 -28 c3 -5 1 -10 -4 -10 -6 0 -11 5 -11 10 0 6 2 10 4 10 3 0 8
-4 11 -10z m-3208 -272 c-3 -8 -6 -5 -6 6 -1 11 2 17 5 13 3 -3 4 -12 1 -19z
m3420 6 c-3 -3 -12 -4 -19 -1 -8 3 -5 6 6 6 11 1 17 -2 13 -5z m198 -69 c39 0
71 -4 72 -10 2 -5 -13 -10 -32 -10 -19 0 -35 2 -35 5 0 3 -30 4 -67 3 -38 -1
-58 1 -45 4 12 2 22 10 22 16 0 8 3 8 8 2 4 -6 39 -10 77 -10z m-2425 -99 c0
-3 -15 -14 -32 -26 l-33 -22 30 26 c31 27 35 29 35 22z m-208 -191 c3 -14 1
-25 -3 -25 -5 0 -9 11 -9 25 0 14 2 25 4 25 2 0 6 -11 8 -25z m1415 -62 c4
-31 2 -33 -26 -33 -27 0 -31 3 -31 28 0 35 8 44 34 40 14 -2 21 -12 23 -35z
m165 2 c-5 -37 -10 -44 -22 -25 -7 10 -10 11 -10 3 0 -7 -3 -13 -7 -13 -5 0
-8 16 -9 36 0 32 2 35 25 32 22 -3 26 -7 23 -33z m79 -2 c6 -33 6 -33 -32 -33
-36 0 -38 2 -30 23 4 12 6 28 3 35 -3 10 4 13 24 10 23 -2 30 -9 35 -35z
m-1061 23 c0 -3 -4 -8 -10 -11 -5 -3 -10 -1 -10 4 0 6 5 11 10 11 6 0 10 -2
10 -4z m903 -3 c-7 -2 -19 -2 -25 0 -7 3 -2 5 12 5 14 0 19 -2 13 -5z m-43
-43 c0 -5 -4 -10 -10 -10 -5 0 -10 5 -10 10 0 6 5 10 10 10 6 0 10 -4 10 -10z
m55 1 c3 -5 1 -12 -5 -16 -5 -3 -10 1 -10 9 0 18 6 21 15 7z m-25 -11 c0 -5
-4 -10 -10 -10 -5 0 -10 5 -10 10 0 6 5 10 10 10 6 0 10 -4 10 -10z m-1570
-190 c0 -5 -2 -10 -4 -10 -3 0 -8 5 -11 10 -3 6 -1 10 4 10 6 0 11 -4 11 -10z"/>
<path d="M1250 2920 c0 -11 5 -20 10 -20 6 0 10 9 10 20 0 11 -4 20 -10 20 -5
0 -10 -9 -10 -20z"/>
<path d="M1595 2915 c0 -17 6 -25 18 -25 12 0 17 8 17 25 0 17 -5 25 -17 25
-12 0 -18 -8 -18 -25z"/>
<path d="M3688 2928 c9 -9 15 -9 24 0 9 9 7 12 -12 12 -19 0 -21 -3 -12 -12z"/>
<path d="M3738 2915 c2 -14 8 -23 12 -20 10 6 1 45 -10 45 -4 0 -5 -11 -2 -25z"/>
<path d="M3780 2928 c21 -9 22 -12 8 -15 -30 -7 -20 -23 13 -23 24 0 30 3 25
16 -3 9 -6 20 -6 25 0 5 -15 9 -32 8 -33 0 -33 0 -8 -11z"/>
<path d="M3858 2932 c13 -4 23 -10 23 -14 -2 -24 2 -28 28 -28 25 0 28 3 23
25 -5 30 -22 34 -22 5 0 -11 -4 -20 -10 -20 -5 0 -10 9 -10 20 0 15 -6 20 -27
19 -26 -1 -27 -1 -5 -7z"/>
<path d="M3840 2900 c0 -5 5 -10 10 -10 6 0 10 5 10 10 0 6 -4 10 -10 10 -5 0
-10 -4 -10 -10z"/>
</g>
</svg>
